<?xml version="1.0" encoding="UTF-8" standalone="no"?>
<svg
   xmlns:dc="http://purl.org/dc/elements/1.1/"
   xmlns:cc="http://creativecommons.org/ns#"
   xmlns:rdf="http://www.w3.org/1999/02/22-rdf-syntax-ns#"
   xmlns:svg="http://www.w3.org/2000/svg"
   xmlns="http://www.w3.org/2000/svg"
   xmlns:xlink="http://www.w3.org/1999/xlink"
   xmlns:sodipodi="http://sodipodi.sourceforge.net/DTD/sodipodi-0.dtd"
   xmlns:inkscape="http://www.inkscape.org/namespaces/inkscape"
   viewBox="0 0 60 60"
   version="1.1"
   id="svg48"
   sodipodi:docname="harbour-voyager.svg"
   inkscape:export-filename="/media/work/harbour-together/icons/172x172/harbour-voyager.png"
   inkscape:export-xdpi="275.20001"
   inkscape:export-ydpi="275.20001"
   inkscape:version="0.92.3 (2405546, 2018-03-11)">
  <metadata
     id="metadata52">
    <rdf:RDF>
      <cc:Work
         rdf:about="">
        <dc:format>image/svg+xml</dc:format>
        <dc:type
           rdf:resource="http://purl.org/dc/dcmitype/StillImage" />
        <dc:title></dc:title>
      </cc:Work>
    </rdf:RDF>
  </metadata>
  <sodipodi:namedview
     pagecolor="#ffffff"
     bordercolor="#666666"
     borderopacity="1"
     objecttolerance="10"
     gridtolerance="10"
     guidetolerance="10"
     inkscape:pageopacity="0"
     inkscape:pageshadow="2"
     inkscape:window-width="1869"
     inkscape:window-height="1016"
     id="namedview50"
     showgrid="false"
     inkscape:zoom="3.9333333"
     inkscape:cx="30"
     inkscape:cy="30"
     inkscape:window-x="51"
     inkscape:window-y="27"
     inkscape:window-maximized="1"
     inkscape:current-layer="svg48" />
  <defs
     id="defs4">
    <linearGradient
       id="linearGradient866">
      <stop
         style="stop-color:#9a5ff3;stop-opacity:1;"
         offset="0"
         id="stop862" />
      <stop
         id="stop874"
         offset="1"
         style="stop-color:#5e1bd1;stop-opacity:1;" />
    </linearGradient>
    <style
       id="style2">.a{fill:#6b6fde;}.b{fill:#eae9f0;}.c{fill:#fdd303;}.d{fill:#e0dfe6;}.e{fill:#f9553f;}.f{fill:#ecf1f2;}.g{fill:#3a4946;}.h{fill:#bfc1ef;}.i{fill:#fff;opacity:0.3;}</style>
    <linearGradient
       inkscape:collect="always"
       xlink:href="#linearGradient866"
       id="linearGradient868"
       x1="30.762711"
       y1="51.610157"
       x2="29.995819"
       y2="0"
       gradientUnits="userSpaceOnUse" />
  </defs>
  <path
     class="a"
     d="M60,30A30,30,0,1,1,30,0,29.95728,29.95728,0,0,1,60,30Z"
     id="path8"
     style="fill-opacity:1;fill:url(#linearGradient868)" />
  <path
     class="b"
     d="M41,30.8V40.81a12.56542,12.56542,0,0,0-6.15-6.7c-.07-.03-.14-.07-.21-.1A10.96147,10.96147,0,0,0,30,33a11.17941,11.17941,0,0,0-4.43.91,1.99742,1.99742,0,0,0-.21.1A12.56082,12.56082,0,0,0,19,40.81V30.8a12.69418,12.69418,0,0,1,4.36-5.61,1.95792,1.95792,0,0,1,.23-.17,11.17057,11.17057,0,0,1,13.05.17c.08.05.16.11.24.17A12.84163,12.84163,0,0,1,41,30.8Z"
     id="path10" />
  <path
     class="c"
     d="M18.30833,44a.75019.75019,0,0,1-.75-.75v-13a.75.75,0,0,1,1.5,0v13A.75019.75019,0,0,1,18.30833,44Z"
     id="path12" />
  <path
     class="c"
     d="M41.68333,44a.75019.75019,0,0,1-.75-.75v-13a.75.75,0,0,1,1.5,0v13A.75019.75019,0,0,1,41.68333,44Z"
     id="path14" />
  <path
     class="d"
     d="M36.64,25.19a31.09506,31.09506,0,0,1-2,8.82A10.96147,10.96147,0,0,0,30,33a11.17941,11.17941,0,0,0-4.43.91,1.99742,1.99742,0,0,0-.21.1,31.09506,31.09506,0,0,1-2-8.82,1.95792,1.95792,0,0,1,.23-.17,11.17057,11.17057,0,0,1,13.05.17Z"
     id="path16" />
  <path
     class="e"
     d="M32.99583,35s3-4,3-17-6-18-6-18-6,5-6,18,3,17,3,17Z"
     id="path18" />
  <path
     class="f"
     d="M48,54a30,30,0,0,1-36,0h1s2,0,3-3,3-3,7-3,7-11,7-11,3,11,7,11,6,0,7,3,3,3,3,3Z"
     id="path20" />
  <path
     class="g"
     d="M34.70582,8.41a27.26044,27.26044,0,0,0-9.42,0c1.76-5.95,4.71-8.41,4.71-8.41S32.94587,2.46,34.70582,8.41Z"
     id="path22" />
  <circle
     class="c"
     cx="29.99583"
     cy="13"
     r="3"
     id="circle24" />
  <path
     class="g"
     d="M26.99583,35h6a0,0,0,0,1,0,0v2a1,1,0,0,1-1,1h-4a1,1,0,0,1-1-1V35A0,0,0,0,1,26.99583,35Z"
     id="path30" />
  <circle
     class="h"
     cx="10"
     cy="11"
     r="1"
     id="circle32" />
  <circle
     class="h"
     cx="16"
     cy="21"
     r="1"
     id="circle34" />
  <circle
     class="h"
     cx="20"
     cy="7"
     r="1"
     id="circle36" />
  <circle
     class="h"
     cx="42"
     cy="11"
     r="1"
     id="circle38" />
  <circle
     class="h"
     cx="44"
     cy="23"
     r="1"
     id="circle40" />
  <circle
     class="h"
     cx="50"
     cy="33"
     r="1"
     id="circle42" />
  <circle
     class="h"
     cx="10"
     cy="31"
     r="1"
     id="circle44" />
  <path
     class="i"
     d="M30.23.22a38.38865,38.38865,0,0,0-1.81,7.83A61.9276,61.9276,0,0,0,27.81,17a85.348,85.348,0,0,0,1.67,18H27.81s-2.5-4-2.5-17A39.15558,39.15558,0,0,1,26.4,8.41h-.01a.7366.7366,0,0,1,.04-.14c0-.01.01-.03.01-.04.04-.18.08-.34.13-.51.08-.28.15-.55.23-.82.05-.15.1-.31.15-.46.11-.37.24-.73.36-1.07.05-.12.1-.23.15-.35.09-.24.18-.47.27-.7.05-.12.1-.23.15-.35.13-.26.24-.52.36-.76.03-.07.07-.14.11-.22.11-.21.22-.42.32-.61.05-.08.1-.16.14-.24.1-.17.19-.33.28-.47l.09-.15c.11-.18.22-.34.32-.49.04-.05.07-.09.1-.13.08-.11.14-.2.21-.29.02-.03.05-.07.07-.1.08-.1.15-.19.21-.26A.17556.17556,0,0,0,30.13.2l.04-.04Z"
     id="path46" />
</svg>
